<?xml version="1.0" encoding="UTF-8"?>
<!DOCTYPE svg PUBLIC "-//W3C//DTD SVG 1.1//EN" "http://www.w3.org/Graphics/SVG/1.1/DTD/svg11.dtd">
<!-- Creator: CorelDRAW X8 -->
<svg xmlns="http://www.w3.org/2000/svg" xml:space="preserve" width="178.134mm" height="40mm" version="1.1" style="shape-rendering:geometricPrecision; text-rendering:geometricPrecision; image-rendering:optimizeQuality; fill-rule:evenodd; clip-rule:evenodd"
viewBox="0 0 20551 4615"
 xmlns:xlink="http://www.w3.org/1999/xlink">
 <defs>
	<filter id="f3" x="0" y="0" width="200%" height="200%">
      <feOffset result="offOut" in="SourceAlpha" dx="20" dy="20" />
      <feGaussianBlur result="blurOut" in="offOut" stdDeviation="10" />
      <feBlend in="SourceGraphic" in2="blurOut" mode="normal" />
    </filter>
  <style type="text/css">
   <![CDATA[
    .fil5 {fill:#3991CC;fill-rule:nonzero}
    .fil4 {fill:url(#id0)}
    .fil2 {fill:url(#id1)}
    .fil3 {fill:url(#id2)}
    .fil1 {fill:url(#id3)}
    .fil0 {fill:url(#id4);fill-rule:nonzero}
   ]]>
  </style>
  <linearGradient id="id0" gradientUnits="userSpaceOnUse" x1="1075.8" y1="4093.82" x2="629.022" y2="248.764">
   <stop offset="0" style="stop-opacity:1; stop-color:#3A559E"/>
   <stop offset="1" style="stop-opacity:1; stop-color:#35A7DD"/>
  </linearGradient>
  <linearGradient id="id1" gradientUnits="userSpaceOnUse" x1="1102.78" y1="3776.68" x2="4132.11" y2="1366.88">
   <stop offset="0" style="stop-opacity:1; stop-color:#6B9246"/>
   <stop offset="1" style="stop-opacity:1; stop-color:#CFD938"/>
  </linearGradient>
  <linearGradient id="id2" gradientUnits="userSpaceOnUse" x1="1067.48" y1="3934.63" x2="2603.1" y2="381.342">
   <stop offset="0" style="stop-opacity:1; stop-color:#E37633"/>
   <stop offset="1" style="stop-opacity:1; stop-color:#FFE51C"/>
  </linearGradient>
  <linearGradient id="id3" gradientUnits="userSpaceOnUse" x1="1444.2" y1="4753" x2="1103.79" y2="-77.7798">
   <stop offset="0" style="stop-opacity:1; stop-color:#435A38"/>
   <stop offset="1" style="stop-opacity:1; stop-color:#B9C341"/>
  </linearGradient>
  <linearGradient id="id4" gradientUnits="objectBoundingBox" xlink:href="#id0" x1="27.9512%" y1="103.234%" x2="27.264%" y2="0%">
  </linearGradient>
 </defs>
 <g id="Camada_x0020_1">
  <metadata id="CorelCorpID_0Corel-Layer"/>
  <path class="fil0" d="M6959 1014c83,0 162,16 238,49 76,33 142,77 197,132 55,55 99,121 132,197 33,76 49,155 49,238l0 1355c0,86 -16,166 -49,241 -33,74 -77,138 -132,194 -55,55 -121,99 -197,132 -76,32 -155,49 -238,49l-1355 0c-93,0 -174,-18 -243,-52l0 1066 -373 0 0 -1583 0 -47 0 -1355c0,-83 17,-162 49,-238 33,-76 77,-142 132,-197 56,-55 120,-99 194,-132 75,-33 155,-49 241,-49l1355 0zm244 616c0,-69 -24,-127 -70,-174 -47,-46 -105,-70 -174,-70l-1355 0c-69,0 -127,24 -173,70 -47,47 -70,105 -70,174l0 1355 0 31c7,59 33,109 80,150 47,41 101,62 163,62l1355 0c69,0 127,-23 174,-70 46,-46 70,-104 70,-173l0 -1355z"/>
  <path id="1" class="fil0" d="M8501 1014l1355 0c83,0 163,16 238,49 76,33 142,77 197,132 55,55 99,121 132,197 33,76 49,155 49,238l0 1971 -372 0 0 -1971c0,-69 -24,-127 -70,-174 -47,-46 -105,-70 -174,-70l-1355 0c-62,0 -116,21 -163,63 -46,41 -73,93 -80,155l0 26 0 1971 -373 0 0 -1971 0 -47 0 -1573 0 -10 373 0 0 10 0 1056c38,-18 77,-30 116,-39 40,-9 82,-13 127,-13z"/>
  <path id="2" class="fil0" d="M12754 3601l-1356 0c-86,0 -166,-17 -240,-49 -75,-33 -139,-77 -194,-132 -56,-56 -100,-121 -132,-197 -33,-76 -50,-155 -50,-238l0 -1971 373 0 0 1971c0,69 23,127 70,173 46,47 104,70 173,70l1356 0c69,0 126,-23 173,-70 46,-46 70,-104 70,-173l0 -336 0 -1635 372 0 0 1635 0 336 0 1014c0,83 -15,161 -46,235 -31,75 -75,139 -130,194 -55,56 -120,100 -194,132 -74,33 -152,51 -235,55l0 -373c65,-3 121,-28 165,-75 45,-46 68,-102 68,-168l0 -450c-80,34 -161,52 -243,52z"/>
  <path id="3" class="fil0" d="M15894 2732c-4,-66 -29,-121 -75,-166 -47,-45 -103,-67 -168,-67l-1366 0 0 -5c-83,0 -161,-17 -233,-50 -72,-32 -136,-76 -191,-131 -56,-56 -100,-119 -132,-192 -33,-72 -49,-150 -49,-233l0 -5 0 -57 0 -196c0,-152 31,-270 93,-355 62,-84 132,-145 212,-183 89,-45 193,-71 310,-78l1356 0c82,0 162,16 238,49 75,33 141,77 196,132 55,55 99,121 132,197 33,76 49,155 49,238l-372 0c0,-69 -24,-127 -70,-174 -47,-46 -104,-70 -173,-70l-1356 0c-45,4 -86,14 -124,32 -31,17 -59,42 -83,75 -24,32 -36,78 -36,137l0 196 0 57c0,66 23,122 70,168 46,47 102,70 168,70l0 5 1361 0c82,0 161,16 235,47 74,31 140,74 197,129 57,55 101,119 134,192 33,72 49,150 49,232l0 6 0 253c0,86 -16,166 -49,241 -33,74 -77,138 -132,194 -55,55 -121,99 -196,132 -76,32 -156,49 -238,49l-1356 0c-86,0 -166,-17 -240,-49 -75,-33 -139,-77 -194,-132 -56,-56 -100,-120 -132,-194 -33,-75 -49,-155 -49,-241l372 0c0,69 23,127 70,173 46,47 104,70 173,70l1356 0c69,0 126,-23 173,-70 46,-46 70,-104 70,-173l0 -253z"/>
  <path id="4" class="fil0" d="M16644 1630c0,-83 15,-162 46,-236 32,-74 75,-139 130,-196 55,-57 119,-102 191,-135 73,-33 150,-49 233,-49l0 372c-62,4 -116,29 -160,75 -45,47 -68,103 -68,169l0 1971 -372 0 0 -1971zm186 -771c-69,0 -128,-24 -178,-73 -50,-48 -75,-107 -75,-176 0,-69 25,-128 75,-178 50,-50 109,-75 178,-75 69,0 128,25 176,75 48,50 72,109 72,178 0,69 -24,128 -72,176 -48,49 -107,73 -176,73z"/>
  <path id="5" class="fil0" d="M19769 2732c-4,-66 -29,-121 -75,-166 -47,-45 -103,-67 -169,-67l-1365 0 0 -5c-83,0 -161,-17 -233,-50 -73,-32 -136,-76 -192,-131 -55,-56 -99,-119 -131,-192 -33,-72 -50,-150 -50,-233l0 -5 0 -57 0 -196c0,-152 31,-270 94,-355 62,-84 132,-145 212,-183 89,-45 193,-71 310,-78l1355 0c83,0 163,16 238,49 76,33 142,77 197,132 55,55 99,121 132,197 33,76 49,155 49,238l-372 0c0,-69 -24,-127 -70,-174 -47,-46 -105,-70 -174,-70l-1355 0c-45,4 -86,14 -124,32 -31,17 -59,42 -83,75 -24,32 -36,78 -36,137l0 196 0 57c0,66 23,122 70,168 46,47 102,70 168,70l0 5 1360 0c83,0 162,16 236,47 74,31 140,74 196,129 57,55 102,119 135,192 33,72 49,150 49,232l0 6 0 253c0,86 -16,166 -49,241 -33,74 -77,138 -132,194 -55,55 -121,99 -197,132 -75,32 -155,49 -238,49l-1355 0c-86,0 -166,-17 -241,-49 -74,-33 -138,-77 -194,-132 -55,-56 -99,-120 -131,-194 -33,-75 -50,-155 -50,-241l373 0c0,69 23,127 70,173 46,47 104,70 173,70l1355 0c69,0 127,-23 174,-70 46,-46 70,-104 70,-173l0 -253z"/>
  <g id="_2027918778288">
   <path class="fil1" d="M2307 0c1275,0 2308,1033 2308,2307 0,1275 -1033,2308 -2308,2308 -1274,0 -2307,-1033 -2307,-2308 0,-1274 1033,-2307 2307,-2307zm0 186c1172,0 2122,950 2122,2121 0,1172 -950,2122 -2122,2122 -1171,0 -2121,-950 -2121,-2122 0,-1171 950,-2121 2121,-2121z"/>
   <g>
    <path class="fil2" d="M4042 1309c317,510 370,1109 195,1638 -205,-107 -456,-168 -745,-135 422,-557 576,-1132 383,-1733 60,72 116,149 167,230zm195 1638c-73,222 -186,431 -336,616 -188,-177 -464,-297 -783,-330 100,-98 191,-196 274,-296 315,-90 607,-79 845,10zm-336 616c-133,164 -295,309 -484,427 -120,74 -245,134 -374,180 -66,-133 -253,-286 -534,-414 176,-134 338,-269 486,-405 356,-7 689,68 906,212zm-858 607c-118,43 -238,73 -359,91 -250,25 -518,5 -796,-70l14 -12c153,-98 298,-197 436,-296 273,30 541,117 705,287zm-1705 -195l-1 0c227,-498 81,-1034 445,-1515 155,348 267,758 325,1147 -231,125 -487,247 -769,368zm444 -1515c49,-65 108,-129 177,-191 144,-129 329,-214 526,-282 130,129 265,546 393,1130 124,-95 236,-191 337,-288 26,-375 -7,-724 -70,-1040 97,226 161,558 185,922 482,-518 638,-1064 545,-1632 -85,654 -796,705 -1390,908 142,356 225,784 246,1237 -141,99 -295,197 -464,294 -149,-475 -319,-848 -485,-1058z"/>
    <path class="fil3" d="M2497 373c519,300 848,804 944,1352 -232,2 -482,67 -721,232 110,-689 -26,-1269 -479,-1708 87,35 172,76 256,124zm944 1352c40,230 39,468 -6,702 -249,-68 -549,-43 -846,78 41,-133 75,-263 101,-389 236,-229 499,-357 751,-391zm-6 702c-40,207 -115,412 -226,604 -71,123 -153,235 -244,336 -122,-86 -359,-133 -667,-113 92,-201 172,-397 237,-587 311,-173 641,-265 900,-240zm-471 940c-84,93 -176,176 -274,250 -209,139 -454,248 -734,313l6 -17c88,-159 170,-315 245,-467 255,-102 532,-152 757,-79zm-1595 632l-1 0c-35,-546 -417,-950 -322,-1546 300,234 592,543 827,859 -145,219 -313,447 -504,687zm-323 -1546c13,-80 34,-164 66,-252 66,-182 189,-343 331,-496 176,52 491,356 879,811 65,-143 118,-280 161,-413 -154,-343 -347,-636 -551,-884 192,154 404,416 598,726 180,-684 61,-1239 -289,-1696 233,616 -370,997 -798,1456 293,247 568,585 800,975 -77,153 -167,312 -270,477 -356,-347 -682,-596 -927,-704z"/>
    <path class="fil4" d="M533 295c600,0 1137,272 1494,699 -200,117 -384,299 -509,561 -250,-652 -657,-1086 -1269,-1239 93,-14 187,-21 284,-21zm1494 699c149,179 267,386 345,611 -249,66 -497,236 -694,490 -30,-136 -66,-265 -106,-388 90,-315 253,-558 455,-713zm345 611c69,199 107,413 107,636 0,142 -15,280 -44,413 -149,-14 -378,64 -634,235 -21,-220 -50,-430 -88,-627 182,-305 422,-549 659,-657zm63 1049c-27,123 -65,241 -113,353 -111,226 -269,442 -479,638l-3 -18c-3,-181 -11,-356 -22,-526 170,-216 385,-398 617,-447zm-1066 1345l-1 0c-303,-455 -835,-614 -1052,-1177 378,52 785,173 1146,329 -16,263 -47,545 -93,848zm-1053 -1177c-29,-76 -52,-159 -68,-252 -34,-190 -9,-391 38,-595 179,-42 603,63 1167,263 -15,-156 -38,-302 -67,-438 -304,-220 -618,-377 -920,-490 244,37 559,158 881,329 -186,-682 -566,-1103 -1098,-1323 511,416 178,1047 37,1659 378,67 784,222 1180,444 10,172 12,355 5,549 -482,-123 -889,-176 -1155,-146z"/>
   </g>
  </g>
  <path class="fil5" d="M20154 11c66,0 131,17 195,52 63,34 113,83 148,146 36,64 54,131 54,200 0,68 -18,134 -53,197 -35,63 -84,112 -147,147 -63,35 -129,53 -197,53 -69,0 -135,-18 -198,-53 -63,-35 -112,-84 -147,-147 -35,-63 -53,-129 -53,-197 0,-69 18,-136 53,-200 36,-63 86,-112 149,-146 64,-35 129,-52 196,-52zm0 66c-56,0 -111,14 -164,43 -52,28 -94,69 -124,123 -29,53 -44,108 -44,166 0,57 14,112 44,164 29,53 70,94 123,123 52,29 107,44 165,44 57,0 112,-15 164,-44 53,-29 94,-70 123,-123 29,-52 44,-107 44,-164 0,-58 -15,-113 -45,-166 -29,-54 -71,-95 -124,-123 -53,-29 -107,-43 -162,-43zm-175 551l0 -427 147 0c50,0 87,4 109,12 23,8 41,21 54,41 13,20 20,41 20,63 0,31 -11,58 -33,81 -23,23 -52,36 -89,39 15,6 27,14 36,23 17,16 38,45 63,84l52 84 -84 0 -38 -67c-29,-53 -54,-87 -72,-100 -13,-10 -31,-14 -55,-14l-41 0 0 181 -69 0zm69 -241l84 0c40,0 67,-5 82,-17 14,-12 22,-28 22,-47 0,-13 -4,-24 -11,-34 -7,-10 -17,-18 -29,-22 -12,-5 -35,-8 -69,-8l-79 0 0 128z"/>
 </g>
</svg>
