<?xml version="1.0" encoding="UTF-8"?>
<!DOCTYPE svg PUBLIC "-//W3C//DTD SVG 1.1//EN" "http://www.w3.org/Graphics/SVG/1.1/DTD/svg11.dtd">
<!-- Creator: CorelDRAW X8 -->
<svg xmlns="http://www.w3.org/2000/svg" xml:space="preserve" width="178.734mm" height="40.3999mm" version="1.1" style="shape-rendering:geometricPrecision; text-rendering:geometricPrecision; image-rendering:optimizeQuality; fill-rule:evenodd; clip-rule:evenodd"
viewBox="0 0 17934 4054"
 xmlns:xlink="http://www.w3.org/1999/xlink">
 <defs>
  <style type="text/css">
   <![CDATA[
    .fil1 {fill:#4B4B4D}
    .fil0 {fill:#4B4B4D;fill-rule:nonzero}
    .fil7 {fill:#3991CC;fill-rule:nonzero}
    .fil6 {fill:url(#id0)}
    .fil3 {fill:url(#id1)}
    .fil4 {fill:url(#id2)}
    .fil5 {fill:url(#id3)}
    .fil2 {fill:url(#id4);fill-rule:nonzero}
   ]]>
  </style>
  <linearGradient id="id0" gradientUnits="userSpaceOnUse" x1="935.631" y1="3560.49" x2="547.077" y2="216.366">
   <stop offset="0" style="stop-opacity:1; stop-color:#3A559E"/>
   <stop offset="1" style="stop-opacity:1; stop-color:#35A7DD"/>
  </linearGradient>
  <linearGradient id="id1" gradientUnits="userSpaceOnUse" x1="1256.05" y1="4133.79" x2="959.983" y2="-67.6572">
   <stop offset="0" style="stop-opacity:1; stop-color:#435A38"/>
   <stop offset="1" style="stop-opacity:1; stop-color:#B9C341"/>
  </linearGradient>
  <linearGradient id="id2" gradientUnits="userSpaceOnUse" x1="959.112" y1="3284.68" x2="3593.8" y2="1188.81">
   <stop offset="0" style="stop-opacity:1; stop-color:#6B9246"/>
   <stop offset="1" style="stop-opacity:1; stop-color:#CFD938"/>
  </linearGradient>
  <linearGradient id="id3" gradientUnits="userSpaceOnUse" x1="928.414" y1="3422.05" x2="2263.98" y2="331.66">
   <stop offset="0" style="stop-opacity:1; stop-color:#E37633"/>
   <stop offset="1" style="stop-opacity:1; stop-color:#FFE51C"/>
  </linearGradient>
  <linearGradient id="id4" gradientUnits="objectBoundingBox" xlink:href="#id0" x1="27.9512%" y1="103.234%" x2="27.264%" y2="0%">
  </linearGradient>
 </defs>
 <g id="Camada_x0020_1">
  <metadata id="CorelCorpID_0Corel-Layer"/>
  <g id="_2067463911984">
   <path class="fil0" d="M6113 922c72,0 141,14 207,43 66,28 123,67 171,115 48,47 86,104 115,170 28,66 42,135 42,207l0 1179c0,75 -14,145 -42,210 -29,64 -67,120 -115,168 -48,48 -105,86 -171,115 -66,28 -135,43 -207,43l-1179 0c-81,0 -151,-15 -211,-45l0 927 -324 0 0 -1377 0 -41 0 -1179c0,-72 14,-141 42,-207 29,-66 67,-123 115,-170 48,-48 104,-87 169,-115 64,-29 134,-43 209,-43l1179 0zm211 535c0,-60 -20,-110 -60,-150 -41,-41 -91,-61 -151,-61l-1179 0c-60,0 -110,20 -151,61 -40,40 -60,90 -60,150l0 1179 0 27c6,51 29,95 69,131 41,36 88,54 142,54l1179 0c60,0 110,-20 151,-61 40,-40 60,-91 60,-151l0 -1179z"/>
   <path id="1" class="fil0" d="M7454 922l1179 0c72,0 141,14 207,43 66,28 123,67 171,115 48,47 86,104 114,170 29,66 43,135 43,207l0 1715 -324 0 0 -1715c0,-60 -20,-110 -61,-150 -40,-41 -90,-61 -150,-61l-1179 0c-54,0 -101,18 -142,54 -40,36 -64,81 -70,135l0 22 0 1715 -324 0 0 -1715 0 -40 0 -1368 0 -9 324 0 0 9 0 918c33,-15 67,-26 102,-34 34,-7 71,-11 110,-11z"/>
   <path id="2" class="fil0" d="M11152 3172l-1179 0c-75,0 -144,-15 -209,-43 -64,-29 -121,-67 -169,-115 -48,-48 -86,-105 -114,-171 -29,-66 -43,-135 -43,-207l0 -1714 324 0 0 1714c0,60 20,111 61,151 40,41 90,61 150,61l1179 0c60,0 111,-20 151,-61 41,-40 61,-91 61,-151l0 -292 0 -1422 324 0 0 1422 0 292 0 882c0,72 -14,140 -41,205 -27,64 -64,121 -112,169 -48,48 -105,86 -169,114 -64,29 -133,45 -205,48l0 -324c57,-3 105,-25 144,-66 39,-40 59,-89 59,-146l0 -391c-69,30 -140,45 -212,45z"/>
   <path id="3" class="fil0" d="M13883 2416c-3,-57 -24,-105 -65,-144 -40,-39 -89,-59 -146,-59l-1188 0 0 -4c-72,0 -139,-14 -202,-43 -63,-28 -119,-67 -167,-115 -48,-48 -86,-103 -115,-166 -28,-63 -42,-131 -42,-203l0 -4 0 -50 0 -171c0,-132 27,-234 81,-308 54,-73 115,-126 184,-159 78,-39 168,-62 270,-68l1179 0c72,0 141,14 207,43 66,28 123,67 171,115 48,47 86,104 115,170 28,66 42,135 42,207l-324 0c0,-60 -20,-110 -60,-150 -41,-41 -91,-61 -151,-61l-1179 0c-39,3 -75,12 -108,27 -27,15 -51,37 -72,65 -21,29 -31,68 -31,119l0 171 0 50c0,57 20,106 60,146 41,41 90,61 147,61l0 4 1183 0c72,0 140,14 205,41 64,27 121,64 171,112 49,48 88,104 117,167 28,63 42,130 42,202l0 5 0 220c0,75 -14,145 -42,210 -29,64 -67,120 -115,168 -48,48 -105,86 -171,115 -66,28 -135,43 -207,43l-1179 0c-75,0 -145,-15 -209,-43 -65,-29 -121,-67 -169,-115 -48,-48 -86,-104 -115,-168 -28,-65 -42,-135 -42,-210l324 0c0,60 20,111 60,151 41,41 91,61 151,61l1179 0c60,0 110,-20 151,-61 40,-40 60,-91 60,-151l0 -220z"/>
   <path id="4" class="fil0" d="M14536 1457c0,-72 13,-140 40,-204 27,-65 65,-122 113,-171 48,-50 103,-89 166,-117 63,-29 131,-43 203,-43l0 324c-54,3 -101,25 -140,65 -39,41 -58,89 -58,146l0 1715 -324 0 0 -1715zm162 -670c-60,0 -112,-21 -155,-63 -44,-42 -66,-93 -66,-153 0,-60 22,-112 66,-155 43,-44 95,-65 155,-65 60,0 111,21 153,65 42,43 63,95 63,155 0,60 -21,111 -63,153 -42,42 -93,63 -153,63z"/>
   <path id="5" class="fil0" d="M17253 2416c-3,-57 -24,-105 -65,-144 -40,-39 -89,-59 -146,-59l-1188 0 0 -4c-72,0 -139,-14 -202,-43 -63,-28 -119,-67 -167,-115 -48,-48 -86,-103 -115,-166 -28,-63 -42,-131 -42,-203l0 -4 0 -50 0 -171c0,-132 27,-234 81,-308 54,-73 115,-126 184,-159 78,-39 168,-62 270,-68l1179 0c72,0 141,14 207,43 66,28 123,67 171,115 48,47 86,104 115,170 28,66 42,135 42,207l-324 0c0,-60 -20,-110 -60,-150 -41,-41 -91,-61 -151,-61l-1179 0c-39,3 -75,12 -108,27 -27,15 -51,37 -72,65 -21,29 -31,68 -31,119l0 171 0 50c0,57 20,106 60,146 41,41 90,61 147,61l0 4 1183 0c72,0 140,14 205,41 64,27 121,64 171,112 49,48 88,104 117,167 28,63 42,130 42,202l0 5 0 220c0,75 -14,145 -42,210 -29,64 -67,120 -115,168 -48,48 -105,86 -171,115 -66,28 -135,43 -207,43l-1179 0c-75,0 -145,-15 -209,-43 -65,-29 -121,-67 -169,-115 -48,-48 -86,-104 -115,-168 -28,-65 -42,-135 -42,-210l324 0c0,60 20,111 60,151 41,41 91,61 151,61l1179 0c60,0 110,-20 151,-61 40,-40 60,-91 60,-151l0 -220z"/>
   <g>
    <path class="fil1" d="M2067 40c1108,0 2007,899 2007,2007 0,1108 -899,2007 -2007,2007 -1108,0 -2007,-899 -2007,-2007 0,-1108 899,-2007 2007,-2007zm0 162c1019,0 1845,826 1845,1845 0,1019 -826,1845 -1845,1845 -1019,0 -1845,-826 -1845,-1845 0,-1019 826,-1845 1845,-1845z"/>
    <g>
     <path class="fil1" d="M3576 1179c275,443 321,964 170,1424 -179,-93 -397,-146 -649,-118 367,-483 501,-984 333,-1506 53,62 101,129 146,200zm170 1424c-64,193 -162,375 -293,536 -163,-154 -403,-258 -681,-287 87,-85 166,-171 238,-257 274,-79 528,-70 736,8zm-293 536c-116,143 -256,269 -421,371 -105,65 -213,117 -325,157 -58,-116 -221,-249 -465,-360 153,-117 295,-234 423,-352 309,-6 600,59 788,184zm-746 528c-103,37 -207,63 -313,79 -217,22 -450,4 -691,-61l12 -10c132,-86 259,-172 378,-258 238,26 471,102 614,250zm-1483 -170l-1 0c197,-433 70,-899 387,-1317 135,303 232,659 283,997 -201,109 -424,215 -669,320zm386 -1317c43,-57 94,-112 154,-167 125,-112 286,-185 457,-244 114,112 231,474 342,982 108,-83 206,-166 293,-250 23,-327 -5,-630 -60,-905 84,197 139,485 161,802 419,-451 555,-925 473,-1419 -73,568 -692,613 -1209,790 124,309 196,681 214,1075 -122,86 -256,171 -403,256 -130,-413 -278,-737 -422,-920z"/>
     <path class="fil1" d="M2232 365c452,261 738,699 821,1176 -202,1 -419,58 -628,201 96,-599 -22,-1104 -416,-1485 76,30 150,66 223,108zm821 1176c35,200 34,407 -6,610 -216,-59 -477,-38 -735,68 36,-116 65,-229 88,-339 205,-198 433,-310 653,-339zm-6 610c-34,180 -99,358 -196,526 -62,106 -133,204 -213,291 -105,-75 -312,-115 -579,-98 80,-175 149,-345 206,-510 270,-151 557,-230 782,-209zm-409 818c-73,80 -153,153 -238,217 -182,121 -395,215 -639,272l6 -15c76,-138 147,-273 212,-406 222,-89 464,-132 659,-68zm-1387 549l-1 0c-31,-474 -362,-826 -280,-1344 261,203 515,472 719,746 -126,191 -272,390 -438,598zm-281 -1344c11,-70 29,-143 57,-220 58,-158 165,-298 288,-431 153,46 427,309 765,705 56,-124 103,-243 140,-359 -134,-298 -302,-553 -480,-769 167,134 352,363 520,632 157,-595 54,-1078 -251,-1475 203,536 -322,867 -694,1266 255,215 494,508 696,848 -67,133 -145,272 -235,415 -309,-302 -593,-519 -806,-612z"/>
     <path class="fil1" d="M523 297c522,0 989,236 1300,608 -174,102 -334,259 -443,488 -217,-567 -571,-945 -1103,-1078 80,-12 163,-18 246,-18zm1300 608c130,155 233,335 300,531 -217,57 -432,206 -603,426 -27,-118 -58,-231 -93,-337 78,-275 220,-486 396,-620zm300 531c60,173 93,359 93,553 0,123 -13,243 -38,359 -129,-12 -329,56 -552,205 -18,-192 -43,-374 -76,-545 159,-266 367,-478 573,-572zm55 912c-23,107 -56,210 -98,308 -97,196 -234,384 -417,555l-3 -16c-2,-158 -9,-310 -19,-458 148,-188 336,-346 537,-389zm-927 1170l-1 0c-264,-395 -727,-534 -915,-1024 329,46 683,151 997,287 -14,228 -41,473 -81,737zm-916 -1024c-25,-66 -45,-138 -60,-219 -29,-165 -7,-340 34,-517 155,-37 525,54 1015,229 -13,-136 -33,-263 -58,-381 -265,-192 -538,-328 -800,-427 211,33 486,138 766,287 -162,-594 -493,-960 -955,-1151 444,362 155,911 32,1443 328,58 682,193 1027,386 8,150 10,309 3,477 -419,-107 -772,-153 -1004,-127z"/>
    </g>
   </g>
   <path class="fil0" d="M17588 50c58,0 115,15 170,45 55,29 99,72 129,127 31,56 47,114 47,174 0,59 -16,116 -46,171 -30,55 -73,98 -128,128 -55,31 -112,46 -172,46 -59,0 -117,-15 -172,-46 -55,-30 -97,-73 -128,-128 -30,-55 -46,-112 -46,-171 0,-60 16,-118 47,-174 31,-55 74,-98 129,-127 56,-30 112,-45 170,-45zm0 57c-48,0 -96,13 -142,37 -46,25 -81,61 -107,107 -26,46 -39,95 -39,145 0,49 12,97 38,143 25,45 61,81 107,106 46,26 94,39 143,39 50,0 98,-13 144,-39 45,-25 81,-61 106,-106 26,-46 38,-94 38,-143 0,-50 -13,-99 -38,-145 -26,-46 -62,-82 -108,-107 -46,-24 -93,-37 -142,-37zm-151 479l0 -371 127 0c44,0 76,3 95,10 20,7 35,19 47,36 12,17 18,35 18,55 0,27 -10,50 -30,70 -19,21 -45,32 -77,34 13,6 24,12 32,20 15,14 33,39 55,74l45 72 -73 0 -33 -58c-26,-46 -47,-75 -63,-87 -11,-8 -27,-12 -48,-12l-35 0 0 157 -60 0zm60 -209l72 0c35,0 59,-5 72,-15 12,-11 19,-24 19,-41 0,-11 -3,-21 -9,-30 -7,-8 -15,-15 -26,-19 -11,-4 -31,-6 -60,-6l-68 0 0 111z"/>
  </g>
  <g id="_2033027861680">
   <path class="fil2" d="M6053 882c72,0 141,14 207,43 66,28 123,66 171,114 48,48 86,105 114,171 29,66 43,135 43,207l0 1179c0,75 -14,145 -43,209 -28,65 -66,121 -114,169 -48,48 -105,86 -171,115 -66,28 -135,43 -207,43l-1179 0c-81,0 -152,-15 -212,-45l0 926 -324 0 0 -1376 0 -41 0 -1179c0,-72 15,-141 43,-207 29,-66 67,-123 115,-171 48,-48 104,-86 169,-114 64,-29 134,-43 209,-43l1179 0zm211 535c0,-60 -20,-110 -61,-150 -40,-41 -90,-61 -150,-61l-1179 0c-60,0 -110,20 -151,61 -40,40 -61,90 -61,150l0 1179 0 27c6,51 30,95 70,131 41,36 88,54 142,54l1179 0c60,0 110,-21 150,-61 41,-41 61,-91 61,-151l0 -1179z"/>
   <path id="1" class="fil2" d="M7394 882l1178 0c72,0 141,14 207,43 66,28 123,66 171,114 48,48 87,105 115,171 29,66 43,135 43,207l0 1715 -324 0 0 -1715c0,-60 -20,-110 -61,-150 -40,-41 -91,-61 -151,-61l-1178 0c-54,0 -102,18 -142,54 -41,36 -64,81 -70,135l0 22 0 1715 -324 0 0 -1715 0 -40 0 -1368 0 -9 324 0 0 9 0 918c33,-15 67,-26 101,-34 35,-7 72,-11 111,-11z"/>
   <path id="2" class="fil2" d="M11092 3132l-1179 0c-75,0 -145,-15 -209,-43 -64,-29 -121,-67 -169,-115 -48,-48 -86,-105 -114,-171 -29,-66 -43,-135 -43,-207l0 -1714 324 0 0 1714c0,60 20,110 60,151 41,40 91,61 151,61l1179 0c60,0 110,-21 151,-61 40,-41 61,-91 61,-151l0 -292 0 -1422 324 0 0 1422 0 292 0 882c0,72 -14,140 -41,205 -27,64 -64,121 -112,168 -48,48 -105,87 -169,115 -65,29 -133,44 -205,47l0 -323c57,-3 105,-25 144,-66 39,-40 59,-89 59,-146l0 -391c-69,30 -140,45 -212,45z"/>
   <path id="3" class="fil2" d="M13823 2376c-3,-57 -25,-105 -65,-144 -41,-39 -89,-59 -146,-59l-1188 0 0 -4c-72,0 -140,-15 -203,-43 -63,-29 -118,-67 -166,-115 -48,-48 -86,-103 -115,-166 -28,-63 -43,-131 -43,-203l0 -4 0 -50 0 -171c0,-132 27,-234 81,-308 54,-73 116,-127 185,-160 78,-39 168,-61 270,-67l1179 0c72,0 141,14 207,43 66,28 123,66 171,114 48,48 86,105 114,171 29,66 43,135 43,207l-324 0c0,-60 -20,-110 -61,-150 -40,-41 -90,-61 -150,-61l-1179 0c-39,3 -75,12 -108,27 -27,15 -51,37 -72,65 -21,29 -32,68 -32,119l0 171 0 50c0,57 21,106 61,146 41,41 89,61 146,61l0 4 1184 0c72,0 140,14 204,41 65,27 122,64 171,112 50,48 89,104 117,167 29,63 43,130 43,202l0 5 0 220c0,75 -14,145 -43,209 -28,65 -66,121 -114,169 -48,48 -105,86 -171,115 -66,28 -135,43 -207,43l-1179 0c-75,0 -145,-15 -209,-43 -65,-29 -121,-67 -169,-115 -48,-48 -86,-104 -115,-169 -28,-64 -43,-134 -43,-209l324 0c0,60 21,110 61,151 41,40 91,61 151,61l1179 0c60,0 110,-21 150,-61 41,-41 61,-91 61,-151l0 -220z"/>
   <path id="4" class="fil2" d="M14476 1417c0,-72 13,-140 40,-204 27,-65 65,-122 113,-171 48,-50 103,-89 166,-117 63,-29 131,-43 203,-43l0 324c-54,3 -101,25 -140,65 -39,41 -58,89 -58,146l0 1715 -324 0 0 -1715zm162 -670c-60,0 -112,-21 -156,-63 -43,-42 -65,-93 -65,-153 0,-60 22,-112 65,-155 44,-44 96,-66 156,-66 60,0 111,22 153,66 42,43 63,95 63,155 0,60 -21,111 -63,153 -42,42 -93,63 -153,63z"/>
   <path id="5" class="fil2" d="M17193 2376c-3,-57 -24,-105 -65,-144 -40,-39 -89,-59 -146,-59l-1188 0 0 -4c-72,0 -140,-15 -203,-43 -63,-29 -118,-67 -166,-115 -48,-48 -86,-103 -115,-166 -28,-63 -42,-131 -42,-203l0 -4 0 -50 0 -171c0,-132 27,-234 81,-308 54,-73 115,-127 184,-160 78,-39 168,-61 270,-67l1179 0c72,0 141,14 207,43 66,28 123,66 171,114 48,48 86,105 114,171 29,66 43,135 43,207l-324 0c0,-60 -20,-110 -60,-150 -41,-41 -91,-61 -151,-61l-1179 0c-39,3 -75,12 -108,27 -27,15 -51,37 -72,65 -21,29 -32,68 -32,119l0 171 0 50c0,57 21,106 61,146 41,41 89,61 146,61l0 4 1184 0c72,0 140,14 205,41 64,27 121,64 170,112 50,48 89,104 117,167 29,63 43,130 43,202l0 5 0 220c0,75 -14,145 -43,209 -28,65 -66,121 -114,169 -48,48 -105,86 -171,115 -66,28 -135,43 -207,43l-1179 0c-75,0 -145,-15 -209,-43 -65,-29 -121,-67 -169,-115 -48,-48 -86,-104 -115,-169 -28,-64 -42,-134 -42,-209l323 0c0,60 21,110 61,151 41,40 91,61 151,61l1179 0c60,0 110,-21 151,-61 40,-41 60,-91 60,-151l0 -220z"/>
   <g>
    <path class="fil3" d="M2007 0c1108,0 2006,898 2006,2007 0,1108 -898,2006 -2006,2006 -1109,0 -2007,-898 -2007,-2006 0,-1109 898,-2007 2007,-2007zm0 161c1019,0 1845,827 1845,1846 0,1019 -826,1845 -1845,1845 -1019,0 -1846,-826 -1846,-1845 0,-1019 827,-1846 1846,-1846z"/>
    <g>
     <path class="fil4" d="M3515 1139c276,443 322,964 170,1424 -178,-93 -396,-146 -648,-118 367,-483 501,-984 333,-1506 52,62 101,129 145,200zm170 1424c-63,193 -162,375 -292,536 -163,-154 -403,-259 -681,-287 86,-85 166,-171 238,-257 274,-79 528,-70 735,8zm-292 536c-116,143 -257,269 -421,371 -105,65 -214,117 -325,157 -58,-116 -221,-249 -465,-360 153,-117 294,-234 423,-352 309,-7 599,59 788,184zm-746 528c-103,37 -208,63 -313,79 -217,22 -450,4 -692,-61l12 -10c133,-86 259,-172 379,-258 238,26 471,102 614,250zm-1483 -170l-1 0c197,-433 70,-899 387,-1317 134,302 232,659 282,997 -201,109 -423,215 -668,320zm386 -1317c43,-57 93,-112 154,-167 125,-112 286,-186 457,-244 114,112 231,474 342,982 108,-83 206,-166 293,-251 23,-326 -6,-630 -61,-904 84,197 140,485 161,802 419,-451 555,-925 474,-1419 -73,568 -692,613 -1209,790 124,309 196,681 214,1075 -122,86 -256,171 -403,255 -130,-412 -278,-737 -422,-919z"/>
     <path class="fil5" d="M2171 324c452,261 738,700 822,1177 -202,1 -419,58 -628,201 96,-599 -22,-1104 -416,-1485 75,30 150,66 222,107zm822 1177c34,200 34,407 -6,610 -216,-59 -477,-38 -735,68 35,-116 65,-229 88,-339 205,-199 433,-310 653,-339zm-6 610c-34,180 -99,358 -196,526 -62,106 -133,204 -213,291 -105,-75 -312,-116 -580,-98 81,-175 150,-345 207,-510 270,-151 557,-231 782,-209zm-409 818c-73,80 -153,153 -238,217 -182,121 -395,215 -639,272l6 -15c76,-138 147,-273 212,-406 222,-89 463,-132 659,-68zm-1388 549l0 0c-31,-475 -363,-826 -280,-1344 261,203 515,471 719,746 -126,191 -272,390 -439,598zm-280 -1344c11,-70 29,-143 57,-220 58,-158 164,-298 288,-431 153,45 427,309 764,705 57,-124 103,-243 141,-359 -134,-298 -302,-553 -480,-769 167,134 352,362 520,631 157,-595 53,-1077 -251,-1474 203,536 -322,866 -694,1266 255,215 494,508 696,848 -67,133 -146,272 -235,415 -310,-302 -593,-519 -806,-612z"/>
     <path class="fil6" d="M463 256c522,0 989,237 1299,608 -173,102 -333,260 -442,489 -217,-567 -571,-945 -1103,-1079 80,-11 162,-18 246,-18zm1300 608c130,156 232,336 300,532 -217,57 -432,206 -603,426 -27,-118 -58,-231 -93,-337 78,-275 220,-486 396,-621zm300 532c60,173 93,359 93,553 0,123 -13,243 -38,359 -129,-12 -329,56 -552,205 -18,-192 -43,-374 -76,-545 158,-266 367,-478 573,-572zm55 912c-23,107 -57,210 -99,307 -96,196 -234,385 -416,556l-3 -16c-3,-158 -9,-311 -19,-458 148,-188 335,-346 537,-389zm-928 1170l0 0c-264,-395 -727,-534 -915,-1024 328,46 682,151 996,287 -14,228 -40,473 -81,737zm-915 -1024c-25,-66 -46,-138 -60,-219 -29,-165 -7,-340 34,-517 155,-37 524,54 1014,228 -13,-135 -32,-262 -57,-380 -265,-192 -538,-329 -800,-427 211,33 486,138 766,287 -162,-594 -493,-960 -955,-1152 444,363 154,912 32,1444 328,58 682,193 1026,386 9,149 10,308 4,477 -419,-107 -772,-153 -1004,-127z"/>
    </g>
   </g>
   <path class="fil7" d="M17528 10c58,0 115,15 170,44 55,30 98,73 129,128 31,56 46,113 46,173 0,60 -15,117 -45,172 -31,55 -73,98 -128,128 -55,31 -112,46 -172,46 -60,0 -117,-15 -172,-46 -55,-30 -97,-73 -128,-128 -30,-55 -46,-112 -46,-172 0,-60 16,-117 47,-173 31,-55 74,-98 129,-128 55,-29 112,-44 170,-44zm0 57c-48,0 -96,12 -142,37 -46,25 -82,61 -108,107 -26,46 -39,94 -39,144 0,50 13,98 39,144 25,45 61,81 107,106 45,26 93,39 143,39 50,0 98,-13 144,-39 45,-25 81,-61 106,-106 26,-46 38,-94 38,-144 0,-50 -13,-98 -39,-144 -25,-46 -61,-82 -107,-107 -46,-25 -94,-37 -142,-37zm-152 479l0 -371 128 0c44,0 76,3 95,10 20,7 35,19 47,36 12,17 17,35 17,54 0,27 -9,51 -29,71 -19,20 -45,32 -77,34 13,6 24,12 31,20 15,14 34,39 55,73l46 73 -73 0 -33 -58c-26,-46 -47,-75 -63,-87 -11,-8 -27,-13 -48,-12l-36 0 0 157 -60 0zm60 -209l73 0c35,0 59,-5 72,-15 12,-11 19,-25 19,-41 0,-11 -4,-21 -10,-30 -6,-9 -14,-15 -25,-19 -11,-4 -31,-7 -60,-7l-69 0 0 112z"/>
  </g>
 </g>
</svg>
